<?xml version="1.0" standalone="no"?>
<svg viewBox="0 0 200 200" xmlns="http://www.w3.org/2000/svg">
  <path fill="#8A3FFC" d="M32.4,-56C46,-48.2,63.9,-47.7,74.1,-39.6C84.4,-31.5,87,-15.7,80.2,-3.9C73.5,7.9,57.4,15.9,47.1,24C36.8,32,32.4,40.2,25.5,49.3C18.6,58.3,9.3,68.2,-1.2,70.3C-11.7,72.3,-23.4,66.5,-31.1,58C-38.9,49.4,-42.7,38.1,-43.3,28C-43.9,17.9,-41.3,8.9,-47.5,-3.6C-53.8,-16.2,-68.9,-32.4,-67.7,-41.5C-66.6,-50.6,-49.1,-52.7,-35.1,-60.2C-21.1,-67.8,-10.5,-80.8,-0.6,-79.9C9.4,-78.9,18.8,-63.8,32.4,-56Z" transform="translate(100 100)" />
</svg>
