<svg width="63" height="48" viewBox="0 0 63 48" fill="none" xmlns="http://www.w3.org/2000/svg">
<g clip-path="url(#clip0_144_2)">
<mask id="mask0_144_2" style="mask-type:luminance" maskUnits="userSpaceOnUse" x="0" y="0" width="63" height="48">
<path d="M63 0H0V48H63V0Z" fill="white"/>
</mask>
<g mask="url(#mask0_144_2)">
<path d="M31.5001 0L63 18.0118V29.9836L31.5001 48L0 29.9836V18.0119L31.5001 0Z" fill="#A5B4FC"/>
<path fillRule="evenodd" clipRule="evenodd" d="M0 18.0118L31.5 0L63 18.0118V29.9836L31.5 48L0 29.9836V18.0118ZM31.5 40.3572L56.3178 26.1626V21.8341L56.3166 21.8334L31.5 36.0236L6.68337 21.8334L6.68216 21.8341V26.1626L31.5 40.3572ZM31.5 29.4055L50.5283 18.5251L45.8929 15.8758L31.5 24.1057L17.1071 15.8758L12.4718 18.5251L31.5 29.4055ZM31.5 17.4876L40.1045 12.5675L31.5 7.6496L22.8955 12.5675L31.5 17.4876Z" fill="#4F46E5"/>
<path d="M31.5001 0L0 18.0119V29.9836L31.5 48L31.5001 0Z" fill="#A5B4FC" fill-opacity="0.3"/>
</g>
</g>
<defs>
<clipPath id="clip0_144_2">
<rect width="63" height="48" fill="white"/>
</clipPath>
</defs>
</svg>
